#!OML:ASF H:\Terrain\Patient Classification 1\Animal1\Tuesday\Animal1.ASF
:FULLY-SPECIFIED
:DEGREES
2507
root 8.71345 16.3655 -20.9909 -375.359 -68.539 21.8938
lowerback -2.19421 -1.1201 -5.72546
upperback -9.05307 -2.05802 -1.81978
thorax -8.18561 -0.796595 1.38964
lowerneck -10.1054 -2.63964 -6.1983
upperneck 1.6291 -3.15969 7.6474
head 2.60582 -1.3984 3.49873
rclavicle 1.78906e-015 9.14409e-015
rhumerus -29.6132 17.646 -97.774
rradius 101.25
rwrist 14.7834
rhand 54.9683 -11.5738
rfingers 7.12502
rthumb 72.8058 -355.328
lclavicle 1.78906e-015 9.14409e-015
lhumerus -39.6932 -24.3964 106.03
lradius 104.47
lwrist -55.7017
lhand -125.002 -477.006
lfingers 7.12502
lthumb 72.8203 -313.337
rfemur -13.7433 24.4432 16.4242
rtibia 24.0356
rfoot -6.03989 -21.6762
rtoes -4.45299
lfemur -4.69769 -14.555 -15.7055
ltibia 32.5006
lfoot 20.8419 -6.78038
ltoes 40.1206
2508
root 8.69787 16.3705 -20.9905 -375.089 -68.4371 21.9691
lowerback -2.66059 -1.37655 -5.62933
upperback -9.16164 -2.36814 -1.67537
thorax -8.00925 -0.958248 1.48961
lowerneck -10.6389 -2.50165 -6.66481
upperneck 2.12919 -2.92921 8.14344
head 2.57766 -1.24356 3.39369
rclavicle -3.03147e-014 1.27222e-014
rhumerus -29.3473 18.1455 -97.8734
rradius 100.951
rwrist 15.0066
rhand 54.2592 -10.4873
rfingers 7.12502
rthumb 72.454 -356.21
lclavicle -3.03147e-014 1.27222e-014
lhumerus -39.1835 -23.5984 105.83
lradius 104.206
lwrist -56.1167
lhand -124.998 -477.47
lfingers 7.12502
lthumb 72.8221 -313.812
rfemur -13.973 24.4502 16.248
rtibia 23.8352
rfoot -6.07644 -21.9156
rtoes -4.63106
lfemur -5.02914 -14.8306 -15.6955
ltibia 32.4329
lfoot 20.9019 -7.45532
ltoes 37.5723
2509
root 8.68652 16.3728 -20.9888 -374.532 -68.3697 21.5904
lowerback -2.95969 -1.33221 -5.25207
upperback -9.29522 -2.30889 -1.85857
thorax -8.00292 -0.96855 1.07865
lowerneck -10.6959 -2.5844 -6.44461
upperneck 2.21508 -3.07442 8.19056
head 2.62125 -1.31029 3.36309
rclavicle 2.76311e-014 1.59028e-014
rhumerus -29.28 17.5933 -98.0839
rradius 100.803
rwrist 15.2839
rhand 54.2986 -10.1355
rfingers 7.12502
rthumb 72.4741 -355.751
lclavicle 2.76311e-014 1.59028e-014
lhumerus -39.1334 -23.2688 105.843
lradius 104.096
lwrist -56.3069
lhand -125.018 -477.886
lfingers 7.12502
lthumb 72.8125 -314.172
rfemur -14.0649 24.5895 16.3208
rtibia 23.7054
rfoot -5.82723 -22.4036
rtoes -5.41655
lfemur -5.21002 -15.1449 -15.5373
ltibia 32.4044
lfoot 20.9338 -7.4629
ltoes 36.6135
2510
root 8.6785 16.3729 -20.9886 -373.645 -68.4154 20.8133
lowerback -3.32366 -1.17493 -4.91936
upperback -9.37505 -2.08014 -1.91238
thorax -7.90038 -0.886743 0.820926
lowerneck -10.5309 -2.7183 -6.14557
upperneck 2.06451 -3.28502 8.0395
head 2.55736 -1.42219 3.25708
rclavicle 5.65542e-014 1.47101e-014
rhumerus -29.1822 16.9359 -97.9924
rradius 100.726
rwrist 15.388
rhand 54.8207 -10.5996
rfingers 7.12502
rthumb 72.7343 -354.77
lclavicle 5.65542e-014 1.47101e-014
lhumerus -39.2774 -22.6937 106.246
lradius 104.278
lwrist -56.5466
lhand -124.982 -478.047
lfingers 7.12502
lthumb 72.8295 -314.433
rfemur -14.1592 24.9733 16.5798
rtibia 23.6163
rfoot -5.81391 -22.5665
rtoes -4.79238
lfemur -5.34141 -15.2065 -15.1745
ltibia 32.3659
lfoot 21.1058 -7.24165
ltoes 37.5179
2511
root 8.66821 16.3744 -20.9898 -373.471 -68.4296 20.8543
lowerback -3.86132 -1.20146 -5.24065
upperback -9.37162 -2.06483 -1.62905
thorax -7.56936 -0.852315 1.28241
lowerneck -10.5888 -2.71221 -6.37825
upperneck 2.03879 -3.22929 7.85436
head 2.55437 -1.40133 3.24121
rclavicle 6.79844e-014 8.74653e-015
rhumerus -28.8936 17.1289 -97.5304
rradius 100.615
rwrist 15.3174
rhand 54.8605 -10.9359
rfingers 7.12502
rthumb 72.7537 -354.994
lclavicle 6.79844e-014 8.74653e-015
lhumerus -39.0609 -21.9813 106.739
lradius 104.322
lwrist -56.5136
lhand -125.313 -477.731
lfingers 7.12502
lthumb 72.6689 -313.187
rfemur -14.3289 25.5895 16.4576
rtibia 23.5546
rfoot -6.10709 -22.7941
rtoes -3.20375
lfemur -5.50372 -15.117 -15.1279
ltibia 32.2824
lfoot 21.3127 -6.89977
ltoes 38.7748
2512
root 8.65463 16.3783 -20.9913 -374.145 -68.3494 21.6338
lowerback -4.09757 -1.29399 -5.25284
upperback -9.31587 -2.18808 -1.88192
thorax -7.375 -0.931275 1.01952
lowerneck -11.0718 -2.68242 -6.24588
upperneck 2.29481 -3.21357 8.09809
head 2.71063 -1.37265 3.29104
rclavicle 2.75814e-014 -1.92821e-014
rhumerus -28.6033 17.1771 -97.9328
rradius 100.515
rwrist 15.2856
rhand 54.2767 -10.8337
rfingers 7.12502
rthumb 72.4629 -356.509
lclavicle 2.75814e-014 -1.92821e-014
lhumerus -38.9393 -21.9796 106.192
lradius 104.386
lwrist -56.2125
lhand -125.729 -478.135
lfingers 7.12502
lthumb 72.46 -312.445
rfemur -14.3054 25.9183 16.1288
rtibia 23.5333
rfoot -6.30665 -23.2017
rtoes -2.47756
lfemur -5.44216 -15.1987 -15.481
ltibia 32.1676
lfoot 21.2283 -6.66453
ltoes 39.3894
